<svg xmlns="http://www.w3.org/2000/svg" viewBox="0 0 1200 400" width="1200" height="400">
  <defs>
    <style>
      .ui { font-family: 'Segoe UI', system-ui, sans-serif; }
      .mono { font-family: 'Cascadia Code', 'Fira Code', monospace; }
    </style>
    <marker id="arr" markerWidth="8" markerHeight="6" refX="7" refY="3" orient="auto">
      <polygon points="0 0, 8 3, 0 6" fill="context-stroke"/>
    </marker>
  </defs>

  <!-- Background -->
  <rect width="1200" height="400" fill="#0d1117"/>

  <!-- Section dividers -->
  <line x1="390" y1="30" x2="390" y2="370" stroke="#21262d" stroke-width="1"/>
  <line x1="830" y1="30" x2="830" y2="370" stroke="#21262d" stroke-width="1"/>

  <!-- ===== LEFT: Title block ===== -->
  <text x="56" y="138" class="ui" font-size="46" font-weight="700" fill="#e6edf3">autoresearch</text>
  <text x="56" y="170" class="ui" font-size="14" fill="#8b949e">Cross-platform autonomous iteration engine</text>

  <!-- v2.2.1 pill -->
  <rect x="56" y="183" width="76" height="22" rx="11" fill="#1a2f1a"/>
  <text x="94" y="198" class="ui" font-size="11" font-weight="600" fill="#30a14e" text-anchor="middle">v2.2.1</text>

  <!-- Tagline -->
  <text x="56" y="258" class="ui" font-size="15" fill="#c9d1d9">Fire it before bed.</text>
  <text x="56" y="280" class="ui" font-size="15" fill="#c9d1d9">Review improvements in the morning.</text>

  <!-- Core loop label -->
  <text x="56" y="336" class="ui" font-size="11" fill="#58a6ff" letter-spacing="2">CORE LOOP</text>
  <line x1="56" y1="342" x2="200" y2="342" stroke="#58a6ff" stroke-width="1" opacity="0.4"/>

  <!-- ===== CENTER: Diamond loop diagram ===== -->
  <!-- Arrow: MODIFY to VERIFY -->
  <path d="M 658 108 Q 726 130 726 178" fill="none" stroke="#58a6ff" stroke-width="2" marker-end="url(#arr)"/>
  <!-- Arrow: VERIFY to KEEP/DISCARD -->
  <path d="M 726 222 Q 726 268 672 290" fill="none" stroke="#58a6ff" stroke-width="2" marker-end="url(#arr)"/>
  <!-- Arrow: KEEP/DISCARD to REPEAT -->
  <path d="M 548 300 Q 488 282 488 222" fill="none" stroke="#30a14e" stroke-width="2" marker-end="url(#arr)"/>
  <!-- Arrow: REPEAT to MODIFY -->
  <path d="M 488 178 Q 488 118 558 104" fill="none" stroke="#30a14e" stroke-width="2" marker-end="url(#arr)"/>

  <!-- Node: MODIFY -->
  <rect x="558" y="82" width="104" height="36" rx="8" fill="#161b22" stroke="#58a6ff" stroke-width="1.5"/>
  <text x="610" y="105" class="ui" font-size="13" font-weight="700" fill="#58a6ff" text-anchor="middle">MODIFY</text>

  <!-- Node: VERIFY -->
  <rect x="674" y="182" width="104" height="36" rx="8" fill="#161b22" stroke="#58a6ff" stroke-width="1.5"/>
  <text x="726" y="205" class="ui" font-size="13" font-weight="700" fill="#58a6ff" text-anchor="middle">VERIFY</text>

  <!-- Node: KEEP / DISCARD -->
  <rect x="524" y="282" width="172" height="36" rx="8" fill="#161b22" stroke="#30a14e" stroke-width="1.5"/>
  <text x="610" y="300" class="ui" font-size="12" font-weight="700" fill="#30a14e" text-anchor="middle">KEEP</text>
  <text x="610" y="313" class="ui" font-size="10" fill="#6e7681" text-anchor="middle">or discard + reset</text>

  <!-- Node: REPEAT -->
  <rect x="438" y="182" width="104" height="36" rx="8" fill="#161b22" stroke="#30a14e" stroke-width="1.5"/>
  <text x="490" y="205" class="ui" font-size="13" font-weight="700" fill="#30a14e" text-anchor="middle">REPEAT</text>

  <!-- Center label -->
  <text x="610" y="194" class="ui" font-size="11" fill="#6e7681" text-anchor="middle">autonomous</text>
  <text x="610" y="210" class="ui" font-size="11" fill="#6e7681" text-anchor="middle">loop</text>

  <!-- ===== RIGHT: Terminal window ===== -->
  <rect x="858" y="56" width="306" height="288" rx="10" fill="#161b22" stroke="#30363d" stroke-width="1"/>
  <!-- Title bar: top-rounded only via path -->
  <path d="M 868 56 Q 858 56 858 66 L 858 90 L 1164 90 L 1164 66 Q 1164 56 1154 56 Z" fill="#21262d"/>
  <!-- Traffic lights -->
  <circle cx="882" cy="73" r="5.5" fill="#ff5f57"/>
  <circle cx="902" cy="73" r="5.5" fill="#ffbd2e"/>
  <circle cx="922" cy="73" r="5.5" fill="#28c840"/>
  <!-- Window title -->
  <text x="1011" y="77" class="ui" font-size="11" fill="#6e7681" text-anchor="middle">autoresearch</text>

  <!-- Column headers -->
  <text x="874" y="116" class="mono" font-size="11" fill="#6e7681">iter   metric   result</text>
  <line x1="874" y1="122" x2="1148" y2="122" stroke="#30363d" stroke-width="1"/>

  <!-- Iteration rows -->
  <text x="874" y="142" class="mono" font-size="11" fill="#30a14e">001    94.2     ✓ keep</text>
  <text x="874" y="160" class="mono" font-size="11" fill="#f85149">002    93.8     ✗ discard</text>
  <text x="874" y="178" class="mono" font-size="11" fill="#30a14e">003    96.1     ✓ keep</text>
  <text x="874" y="196" class="mono" font-size="11" fill="#30a14e">004    97.4     ✓ keep</text>
  <text x="874" y="214" class="mono" font-size="11" fill="#f85149">005    97.1     ✗ discard</text>
  <text x="874" y="232" class="mono" font-size="11" fill="#30a14e">006    99.0     ✓ keep</text>
  <text x="874" y="250" class="mono" font-size="11" fill="#6e7681">007    ...</text>

  <!-- Best metric footer bar -->
  <rect x="858" y="292" width="306" height="52" fill="#0d2818"/>
  <rect x="867" y="300" width="3" height="28" rx="1.5" fill="#30a14e"/>
  <text x="880" y="314" class="mono" font-size="11" fill="#30a14e">best: 99.0  (+5.1%)  4 kept</text>
  <text x="880" y="330" class="mono" font-size="11" fill="#6e7681">→ autoresearch-report.md</text>
</svg>
